<svg xmlns="http://www.w3.org/2000/svg" viewBox="0 0 64 64">
  <g fill="#0B2545">
    <rect x="15" y="16" width="16" height="16" rx="4"/>
    <rect x="33" y="16" width="16" height="16" rx="4"/>
    <rect x="6" y="26" width="10" height="20" rx="5"/>
    <rect x="48" y="26" width="10" height="20" rx="5"/>
    <rect x="13" y="34" width="38" height="8" rx="3"/>
    <rect x="11" y="41" width="42" height="7" rx="3"/>
    <rect x="15" y="48" width="6" height="5" rx="1.5"/>
    <rect x="43" y="48" width="6" height="5" rx="1.5"/>
  </g>
  <path fill="#1DA7E8" d="M50 2 C47.2 6.4 44.5 8.8 44.5 12 a5.5 5.5 0 0 0 11 0 C55.5 8.8 52.8 6.4 50 2 Z"/>
  <path fill="#1DA7E8" d="M38 1 l1.7 4.6 4.6 1.7 -4.6 1.7 -1.7 4.6 -1.7 -4.6 -4.6 -1.7 4.6 -1.7 Z"/>
</svg>
